<?xml version="1.0" encoding="UTF-8" standalone="no"?>
<!DOCTYPE svg PUBLIC "-//W3C//DTD SVG 1.1//EN" "http://www.w3.org/Graphics/SVG/1.1/DTD/svg11.dtd">
<svg width="100%" height="100%" viewBox="0 0 517 179" version="1.1" xmlns="http://www.w3.org/2000/svg" xmlns:xlink="http://www.w3.org/1999/xlink" xml:space="preserve" xmlns:serif="http://www.serif.com/" style="fill-rule:evenodd;clip-rule:evenodd;stroke-linejoin:round;stroke-miterlimit:2;">
    <path d="M24.13,24.223C-1.218,49.494 -2.502,51.251 2.056,54.443C3.885,55.725 7.774,56 24.056,56L43.833,56L43.833,79.032C43.833,96.529 44.168,102.838 45.228,105.282C46.778,108.858 115.65,178 117.662,178C118.356,178 120.028,176.895 121.378,175.545L123.833,173.091L123.909,106.5L160.486,69C180.603,48.375 197.686,30.052 198.448,28.282C200.361,23.838 200.184,21.351 197.784,18.951C195.787,16.954 194.877,16.91 161.534,17.201L127.333,17.5L122.833,20.181C120.358,21.655 113.486,27.747 107.562,33.718L96.791,44.575L77.562,25.173C59.189,6.635 51.787,0 49.48,0C48.901,0 37.493,10.9 24.13,24.223ZM89.833,50.5C89.833,51.061 81.508,59.836 71.333,70L52.833,88.48L52.833,12.52L71.333,31C81.508,41.164 89.833,49.939 89.833,50.5ZM43.833,32.5L43.833,48L28.833,48C20.583,48 13.833,47.668 13.833,47.262C13.833,46.604 42.924,17 43.57,17C43.715,17 43.833,23.975 43.833,32.5ZM187.752,28.75C179.575,38.076 85.468,134 84.496,134C82.835,134 52.833,103.64 52.833,101.959C52.833,101.151 69.472,83.856 89.808,63.525L126.783,26.56L132.058,25.921C134.959,25.569 149.417,25.218 164.187,25.141L191.04,25L187.752,28.75ZM114.833,140.234L114.833,164.469L90.92,140.618L102.627,128.401C109.065,121.682 114.445,116.143 114.583,116.092C114.721,116.042 114.833,126.905 114.833,140.234Z" style="fill:url(#_Linear1);"/>
    <path d="M120.336,178.04C119.157,178.04 118.221,177.832 117.528,177.416C116.904,177 116.453,176.445 116.176,175.752C115.899,174.989 115.76,174.157 115.76,173.256L115.76,110.024C115.76,109.123 115.864,108.325 116.072,107.632C116.349,106.939 116.835,106.384 117.528,105.968C118.221,105.552 119.192,105.344 120.44,105.344L140.928,105.448C146.059,105.448 150.704,106.315 154.864,108.048C159.093,109.712 162.699,112.104 165.68,115.224C168.661,118.344 170.949,122.123 172.544,126.56C174.139,130.997 174.936,135.92 174.936,141.328C174.936,146.944 174.139,152.005 172.544,156.512C170.949,161.019 168.627,164.867 165.576,168.056C162.595,171.245 158.989,173.707 154.76,175.44C150.531,177.173 145.816,178.04 140.616,178.04L120.336,178.04ZM125.12,168.576L140.928,168.576C145.989,168.576 150.357,167.501 154.032,165.352C157.707,163.133 160.549,160.048 162.56,156.096C164.571,152.075 165.576,147.325 165.576,141.848C165.576,136.301 164.571,131.517 162.56,127.496C160.549,123.475 157.672,120.389 153.928,118.24C150.253,116.021 145.885,114.912 140.824,114.912L125.12,114.912L125.12,168.576Z" style="fill:url(#_Linear2);fill-rule:nonzero;"/>
    <path d="M209.192,178.56C205.032,178.56 201.322,177.867 198.064,176.48C194.805,175.093 192.032,173.221 189.744,170.864C187.525,168.437 185.826,165.664 184.648,162.544C183.469,159.424 182.88,156.061 182.88,152.456C182.88,147.672 183.989,143.408 186.208,139.664C188.426,135.92 191.477,132.973 195.36,130.824C199.312,128.605 203.818,127.496 208.88,127.496C212.346,127.496 215.432,128.051 218.136,129.16C220.909,130.2 223.266,131.621 225.208,133.424C227.149,135.227 228.64,137.237 229.68,139.456C230.72,141.675 231.24,143.893 231.24,146.112C231.24,149.648 230.408,152.144 228.744,153.6C227.08,154.987 225.034,155.68 222.608,155.68L192.552,155.68C192.482,158.731 193.28,161.365 194.944,163.584C196.677,165.733 198.826,167.397 201.392,168.576C204.026,169.755 206.661,170.344 209.296,170.344C211.237,170.344 212.901,170.24 214.288,170.032C215.674,169.824 216.888,169.547 217.928,169.2C218.968,168.853 219.869,168.507 220.632,168.16C221.394,167.813 222.053,167.467 222.608,167.12C223.232,166.773 223.821,166.531 224.376,166.392C225,166.253 225.589,166.323 226.144,166.6C226.768,166.808 227.253,167.259 227.6,167.952C228.016,168.507 228.293,169.027 228.432,169.512C228.57,169.997 228.64,170.517 228.64,171.072C228.64,172.043 227.808,173.117 226.144,174.296C224.48,175.475 222.157,176.48 219.176,177.312C216.264,178.144 212.936,178.56 209.192,178.56ZM192.552,149.544L218.656,149.544C219.973,149.544 220.944,149.371 221.568,149.024C222.261,148.677 222.608,147.741 222.608,146.216C222.608,144.275 222.018,142.541 220.84,141.016C219.661,139.421 218.032,138.139 215.952,137.168C213.941,136.197 211.618,135.712 208.984,135.712C205.933,135.712 203.125,136.336 200.56,137.584C198.064,138.763 196.088,140.392 194.632,142.472C193.176,144.552 192.482,146.909 192.552,149.544Z" style="fill:url(#_Linear3);fill-rule:nonzero;"/>
    <path d="M257.735,178.248C256.557,178.248 255.586,178.075 254.823,177.728C254.13,177.381 253.541,176.757 253.055,175.856L233.815,133.944C233.053,132.28 232.879,131.032 233.295,130.2C233.711,129.299 234.682,128.467 236.207,127.704C237.594,127.011 238.773,126.803 239.743,127.08C240.714,127.288 241.546,128.189 242.239,129.784L257.735,166.704L272.919,130.824C273.682,129.229 274.514,128.085 275.415,127.392C276.317,126.699 277.738,126.837 279.679,127.808C281.551,128.709 282.487,129.749 282.487,130.928C282.487,132.037 282.175,133.251 281.551,134.568L262.415,175.752C262.069,176.584 261.514,177.208 260.751,177.624C259.989,178.04 258.983,178.248 257.735,178.248Z" style="fill:url(#_Linear4);fill-rule:nonzero;"/>
    <path d="M310.758,178.56C306.598,178.56 302.889,177.867 299.63,176.48C296.372,175.093 293.598,173.221 291.31,170.864C289.092,168.437 287.393,165.664 286.214,162.544C285.036,159.424 284.446,156.061 284.446,152.456C284.446,147.672 285.556,143.408 287.774,139.664C289.993,135.92 293.044,132.973 296.926,130.824C300.878,128.605 305.385,127.496 310.446,127.496C313.913,127.496 316.998,128.051 319.702,129.16C322.476,130.2 324.833,131.621 326.774,133.424C328.716,135.227 330.206,137.237 331.246,139.456C332.286,141.675 332.806,143.893 332.806,146.112C332.806,149.648 331.974,152.144 330.31,153.6C328.646,154.987 326.601,155.68 324.174,155.68L294.118,155.68C294.049,158.731 294.846,161.365 296.51,163.584C298.244,165.733 300.393,167.397 302.958,168.576C305.593,169.755 308.228,170.344 310.862,170.344C312.804,170.344 314.468,170.24 315.854,170.032C317.241,169.824 318.454,169.547 319.494,169.2C320.534,168.853 321.436,168.507 322.198,168.16C322.961,167.813 323.62,167.467 324.174,167.12C324.798,166.773 325.388,166.531 325.942,166.392C326.566,166.253 327.156,166.323 327.71,166.6C328.334,166.808 328.82,167.259 329.166,167.952C329.582,168.507 329.86,169.027 329.998,169.512C330.137,169.997 330.206,170.517 330.206,171.072C330.206,172.043 329.374,173.117 327.71,174.296C326.046,175.475 323.724,176.48 320.742,177.312C317.83,178.144 314.502,178.56 310.758,178.56ZM294.118,149.544L320.222,149.544C321.54,149.544 322.51,149.371 323.134,149.024C323.828,148.677 324.174,147.741 324.174,146.216C324.174,144.275 323.585,142.541 322.406,141.016C321.228,139.421 319.598,138.139 317.518,137.168C315.508,136.197 313.185,135.712 310.55,135.712C307.5,135.712 304.692,136.336 302.126,137.584C299.63,138.763 297.654,140.392 296.198,142.472C294.742,144.552 294.049,146.909 294.118,149.544Z" style="fill:url(#_Linear5);fill-rule:nonzero;"/>
    <path d="M356.938,178.04C354.72,178.04 352.709,177.832 350.906,177.416C349.173,177.069 347.648,176.48 346.33,175.648C345.013,174.816 343.904,173.741 343.002,172.424C342.17,171.107 341.546,169.512 341.13,167.64C340.784,165.768 340.61,163.584 340.61,161.088L340.61,109.088C340.61,108.048 340.68,107.181 340.818,106.488C341.026,105.795 341.477,105.275 342.17,104.928C342.864,104.512 343.834,104.304 345.082,104.304C346.469,104.304 347.474,104.477 348.098,104.824C348.792,105.171 349.242,105.691 349.45,106.384C349.658,107.077 349.762,107.909 349.762,108.88L349.762,160.984C349.762,162.371 349.901,163.584 350.178,164.624C350.456,165.595 350.872,166.427 351.426,167.12C352.05,167.813 352.813,168.299 353.714,168.576C354.616,168.853 355.69,168.992 356.938,168.992C357.77,168.992 358.464,169.096 359.018,169.304C359.642,169.512 360.128,169.928 360.474,170.552C360.821,171.176 360.994,172.147 360.994,173.464C360.994,174.851 360.821,175.891 360.474,176.584C360.128,177.208 359.642,177.589 359.018,177.728C358.464,177.936 357.77,178.04 356.938,178.04Z" style="fill:url(#_Linear6);fill-rule:nonzero;"/>
    <path d="M373.396,178.04C372.079,178.04 371.074,177.832 370.38,177.416C369.756,177.069 369.34,176.549 369.132,175.856C368.924,175.163 368.82,174.331 368.82,173.36L368.82,132.28C368.82,131.309 368.924,130.477 369.132,129.784C369.34,129.091 369.756,128.571 370.38,128.224C371.074,127.877 372.114,127.704 373.5,127.704C374.818,127.704 375.788,127.912 376.412,128.328C377.036,128.675 377.452,129.195 377.66,129.888C377.868,130.581 377.972,131.448 377.972,132.488L377.972,173.464C377.972,174.435 377.868,175.267 377.66,175.96C377.452,176.653 377.002,177.173 376.308,177.52C375.684,177.867 374.714,178.04 373.396,178.04ZM373.396,115.224C371.871,115.224 370.727,115.016 369.964,114.6C369.202,114.115 368.682,113.456 368.404,112.624C368.196,111.792 368.092,110.821 368.092,109.712C368.092,108.603 368.231,107.667 368.508,106.904C368.786,106.072 369.306,105.483 370.068,105.136C370.831,104.72 371.975,104.512 373.5,104.512C374.956,104.512 376.066,104.72 376.828,105.136C377.591,105.552 378.076,106.176 378.284,107.008C378.562,107.84 378.7,108.811 378.7,109.92C378.7,111.029 378.562,112 378.284,112.832C378.076,113.595 377.591,114.184 376.828,114.6C376.066,115.016 374.922,115.224 373.396,115.224Z" style="fill:url(#_Linear7);fill-rule:nonzero;"/>
    <path d="M411.159,178.04C407.9,178.04 405.127,177.728 402.839,177.104C400.62,176.48 398.783,175.509 397.327,174.192C395.871,172.875 394.831,171.176 394.207,169.096C393.583,166.947 393.271,164.312 393.271,161.192L393.271,115.224C393.271,114.253 393.375,113.421 393.583,112.728C393.791,112.035 394.207,111.515 394.831,111.168C395.455,110.752 396.426,110.544 397.743,110.544C399.06,110.544 400.066,110.752 400.759,111.168C401.452,111.515 401.903,112.035 402.111,112.728C402.319,113.352 402.423,114.149 402.423,115.12L402.423,161.192C402.423,162.995 402.562,164.451 402.839,165.56C403.186,166.6 403.671,167.397 404.295,167.952C404.988,168.507 405.89,168.853 406.999,168.992C408.108,169.131 409.46,169.2 411.055,169.2C412.164,169.2 413.066,169.304 413.759,169.512C414.452,169.72 414.972,170.136 415.319,170.76C415.666,171.384 415.839,172.32 415.839,173.568C415.839,174.885 415.631,175.891 415.215,176.584C414.868,177.208 414.314,177.589 413.551,177.728C412.858,177.936 412.06,178.04 411.159,178.04ZM387.863,128.848L397.847,128.952L412.303,128.744C413.274,128.744 414.106,128.848 414.799,129.056C415.492,129.195 416.012,129.611 416.359,130.304C416.775,130.928 416.983,131.899 416.983,133.216C416.983,134.533 416.81,135.539 416.463,136.232C416.116,136.856 415.596,137.272 414.903,137.48C414.21,137.688 413.378,137.792 412.407,137.792L398.159,137.584L387.655,137.688C386.199,137.688 385.194,137.341 384.639,136.648C384.154,135.955 383.911,134.811 383.911,133.216C383.911,131.691 384.223,130.581 384.847,129.888C385.471,129.195 386.476,128.848 387.863,128.848Z" style="fill:url(#_Linear8);fill-rule:nonzero;"/>
    <path d="M428.941,178.144C426.861,178.144 425.405,177.728 424.573,176.896C423.741,176.064 423.325,174.677 423.325,172.736C423.325,171.28 423.498,170.171 423.845,169.408C424.191,168.576 424.781,167.987 425.613,167.64C426.445,167.224 427.554,167.016 428.941,167.016C431.021,167.016 432.442,167.432 433.205,168.264C434.037,169.096 434.453,170.552 434.453,172.632C434.453,174.019 434.279,175.128 433.933,175.96C433.586,176.723 432.997,177.277 432.165,177.624C431.402,177.971 430.327,178.144 428.941,178.144Z" style="fill:url(#_Linear9);fill-rule:nonzero;"/>
    <path d="M449.422,178.04C448.105,178.04 447.099,177.832 446.406,177.416C445.782,177.069 445.366,176.549 445.158,175.856C444.95,175.163 444.846,174.331 444.846,173.36L444.846,132.28C444.846,131.309 444.95,130.477 445.158,129.784C445.366,129.091 445.782,128.571 446.406,128.224C447.099,127.877 448.139,127.704 449.526,127.704C450.843,127.704 451.814,127.912 452.438,128.328C453.062,128.675 453.478,129.195 453.686,129.888C453.894,130.581 453.998,131.448 453.998,132.488L453.998,173.464C453.998,174.435 453.894,175.267 453.686,175.96C453.478,176.653 453.027,177.173 452.334,177.52C451.71,177.867 450.739,178.04 449.422,178.04ZM449.422,115.224C447.897,115.224 446.753,115.016 445.99,114.6C445.227,114.115 444.707,113.456 444.43,112.624C444.222,111.792 444.118,110.821 444.118,109.712C444.118,108.603 444.257,107.667 444.534,106.904C444.811,106.072 445.331,105.483 446.094,105.136C446.857,104.72 448.001,104.512 449.526,104.512C450.982,104.512 452.091,104.72 452.854,105.136C453.617,105.552 454.102,106.176 454.31,107.008C454.587,107.84 454.726,108.811 454.726,109.92C454.726,111.029 454.587,112 454.31,112.832C454.102,113.595 453.617,114.184 452.854,114.6C452.091,115.016 450.947,115.224 449.422,115.224Z" style="fill:url(#_Linear10);fill-rule:nonzero;"/>
    <path d="M487.569,178.664C484.172,178.664 480.913,178.005 477.793,176.688C474.742,175.371 472.004,173.568 469.577,171.28C467.15,168.923 465.244,166.184 463.857,163.064C462.47,159.944 461.777,156.547 461.777,152.872C461.777,149.267 462.436,145.939 463.753,142.888C465.07,139.768 466.908,137.029 469.265,134.672C471.622,132.315 474.326,130.477 477.377,129.16C480.497,127.773 483.825,127.08 487.361,127.08C492.145,127.08 496.444,128.224 500.257,130.512C504.14,132.731 507.225,135.781 509.513,139.664C511.801,143.547 512.945,147.915 512.945,152.768C512.945,156.581 512.252,160.083 510.865,163.272C509.478,166.392 507.606,169.096 505.249,171.384C502.892,173.672 500.188,175.475 497.137,176.792C494.086,178.04 490.897,178.664 487.569,178.664ZM487.361,169.616C490.273,169.616 492.977,168.888 495.473,167.432C497.969,165.976 499.98,163.965 501.505,161.4C503.03,158.835 503.793,155.923 503.793,152.664C503.793,149.405 503.065,146.528 501.609,144.032C500.222,141.536 498.281,139.595 495.785,138.208C493.289,136.821 490.446,136.128 487.257,136.128C484.206,136.128 481.433,136.856 478.937,138.312C476.51,139.768 474.534,141.744 473.009,144.24C471.553,146.736 470.825,149.579 470.825,152.768C470.825,156.096 471.588,159.043 473.113,161.608C474.638,164.104 476.649,166.08 479.145,167.536C481.71,168.923 484.449,169.616 487.361,169.616Z" style="fill:url(#_Linear11);fill-rule:nonzero;"/>
    <defs>
        <linearGradient id="_Linear1" x1="0" y1="0" x2="1" y2="0" gradientUnits="userSpaceOnUse" gradientTransform="matrix(61.8188,279.328,-279.328,61.8188,0,0)"><stop offset="0" style="stop-color:rgb(71,189,255);stop-opacity:1"/><stop offset="1" style="stop-color:rgb(180,118,229);stop-opacity:1"/></linearGradient>
        <linearGradient id="_Linear2" x1="0" y1="0" x2="1" y2="0" gradientUnits="userSpaceOnUse" gradientTransform="matrix(61.8188,279.328,-279.328,61.8188,0,0)"><stop offset="0" style="stop-color:rgb(71,189,255);stop-opacity:1"/><stop offset="1" style="stop-color:rgb(180,118,229);stop-opacity:1"/></linearGradient>
        <linearGradient id="_Linear3" x1="0" y1="0" x2="1" y2="0" gradientUnits="userSpaceOnUse" gradientTransform="matrix(61.8188,279.328,-279.328,61.8188,0,0)"><stop offset="0" style="stop-color:rgb(71,189,255);stop-opacity:1"/><stop offset="1" style="stop-color:rgb(180,118,229);stop-opacity:1"/></linearGradient>
        <linearGradient id="_Linear4" x1="0" y1="0" x2="1" y2="0" gradientUnits="userSpaceOnUse" gradientTransform="matrix(61.8188,279.328,-279.328,61.8188,0,0)"><stop offset="0" style="stop-color:rgb(71,189,255);stop-opacity:1"/><stop offset="1" style="stop-color:rgb(180,118,229);stop-opacity:1"/></linearGradient>
        <linearGradient id="_Linear5" x1="0" y1="0" x2="1" y2="0" gradientUnits="userSpaceOnUse" gradientTransform="matrix(61.8188,279.328,-279.328,61.8188,0,0)"><stop offset="0" style="stop-color:rgb(71,189,255);stop-opacity:1"/><stop offset="1" style="stop-color:rgb(180,118,229);stop-opacity:1"/></linearGradient>
        <linearGradient id="_Linear6" x1="0" y1="0" x2="1" y2="0" gradientUnits="userSpaceOnUse" gradientTransform="matrix(61.8188,279.328,-279.328,61.8188,0,0)"><stop offset="0" style="stop-color:rgb(71,189,255);stop-opacity:1"/><stop offset="1" style="stop-color:rgb(180,118,229);stop-opacity:1"/></linearGradient>
        <linearGradient id="_Linear7" x1="0" y1="0" x2="1" y2="0" gradientUnits="userSpaceOnUse" gradientTransform="matrix(61.8188,279.328,-279.328,61.8188,0,0)"><stop offset="0" style="stop-color:rgb(71,189,255);stop-opacity:1"/><stop offset="1" style="stop-color:rgb(180,118,229);stop-opacity:1"/></linearGradient>
        <linearGradient id="_Linear8" x1="0" y1="0" x2="1" y2="0" gradientUnits="userSpaceOnUse" gradientTransform="matrix(61.8188,279.328,-279.328,61.8188,0,0)"><stop offset="0" style="stop-color:rgb(71,189,255);stop-opacity:1"/><stop offset="1" style="stop-color:rgb(180,118,229);stop-opacity:1"/></linearGradient>
        <linearGradient id="_Linear9" x1="0" y1="0" x2="1" y2="0" gradientUnits="userSpaceOnUse" gradientTransform="matrix(61.8188,279.328,-279.328,61.8188,0,0)"><stop offset="0" style="stop-color:rgb(71,189,255);stop-opacity:1"/><stop offset="1" style="stop-color:rgb(180,118,229);stop-opacity:1"/></linearGradient>
        <linearGradient id="_Linear10" x1="0" y1="0" x2="1" y2="0" gradientUnits="userSpaceOnUse" gradientTransform="matrix(61.8188,279.328,-279.328,61.8188,0,0)"><stop offset="0" style="stop-color:rgb(71,189,255);stop-opacity:1"/><stop offset="1" style="stop-color:rgb(180,118,229);stop-opacity:1"/></linearGradient>
        <linearGradient id="_Linear11" x1="0" y1="0" x2="1" y2="0" gradientUnits="userSpaceOnUse" gradientTransform="matrix(61.8188,279.328,-279.328,61.8188,0,0)"><stop offset="0" style="stop-color:rgb(71,189,255);stop-opacity:1"/><stop offset="1" style="stop-color:rgb(180,118,229);stop-opacity:1"/></linearGradient>
    </defs>
</svg>
