<svg width="45" height="45" viewBox="0 0 45 45" fill="none" xmlns="http://www.w3.org/2000/svg">
<g clip-path="url(#clip0_20_20)">
<circle cx="22.5" cy="22.5" r="22.5" fill="#D9D9D9"/>
<path d="M23 14C24.0609 14 25.0783 14.4214 25.8284 15.1716C26.5786 15.9217 27 16.9391 27 18C27 19.0609 26.5786 20.0783 25.8284 20.8284C25.0783 21.5786 24.0609 22 23 22C21.9391 22 20.9217 21.5786 20.1716 20.8284C19.4214 20.0783 19 19.0609 19 18C19 16.9391 19.4214 15.9217 20.1716 15.1716C20.9217 14.4214 21.9391 14 23 14ZM23 24C27.42 24 31 25.79 31 28V30H15V28C15 25.79 18.58 24 23 24Z" fill="#7B7B7B"/>
</g>
<defs>
<clipPath id="clip0_20_20">
<rect width="45" height="45" fill="white"/>
</clipPath>
</defs>
</svg>
